HIERARCHY
ROOT Hips
{
  OFFSET 0.569343 96.2085 60.4854
  CHANNELS 6 Xposition Yposition Zposition Zrotation Xrotation Yrotation
  JOINT Chest
  {
    OFFSET 0 10.5691 -1.07959
    CHANNELS 6 Xposition Yposition Zposition Zrotation Xrotation Yrotation
    JOINT Chest2
    {
      OFFSET 0 11.6675 1.08235
      CHANNELS 6 Xposition Yposition Zposition Zrotation Xrotation Yrotation
      JOINT Chest3
      {
        OFFSET 0 10.5876 0
        CHANNELS 6 Xposition Yposition Zposition Zrotation Xrotation Yrotation
        JOINT Chest4
        {
          OFFSET 0 10.5876 0
          CHANNELS 6 Xposition Yposition Zposition Zrotation Xrotation Yrotation
          JOINT Neck
          {
            OFFSET 0 14.88 0
            CHANNELS 6 Xposition Yposition Zposition Zrotation Xrotation Yrotation
            JOINT Head
            {
              OFFSET 0 9.61473 2.16553
              CHANNELS 6 Xposition Yposition Zposition Zrotation Xrotation Yrotation
              End Site
              {
                OFFSET 0 0 0
              }
            }
          }
          JOINT RightCollar
          {
            OFFSET -3.23953 8.30385 0
            CHANNELS 6 Xposition Yposition Zposition Zrotation Xrotation Yrotation
            JOINT RightShoulder
            {
              OFFSET -15.1725 0 0
              CHANNELS 6 Xposition Yposition Zposition Zrotation Xrotation Yrotation
              JOINT RightElbow
              {
                OFFSET -32.4113 0 0
                CHANNELS 6 Xposition Yposition Zposition Zrotation Xrotation Yrotation
                JOINT RightWrist
                {
                  OFFSET -26.4919 0 1.08131
                  CHANNELS 6 Xposition Yposition Zposition Zrotation Xrotation Yrotation
                  End Site
                  {
                    OFFSET 0 0 0
                  }
                }
              }
            }
          }
          JOINT LeftCollar
          {
            OFFSET 3.23953 8.30385 0
            CHANNELS 6 Xposition Yposition Zposition Zrotation Xrotation Yrotation
            JOINT LeftShoulder
            {
              OFFSET 15.1725 0 0
              CHANNELS 6 Xposition Yposition Zposition Zrotation Xrotation Yrotation
              JOINT LeftElbow
              {
                OFFSET 32.4113 0 0
                CHANNELS 6 Xposition Yposition Zposition Zrotation Xrotation Yrotation
                JOINT LeftWrist
                {
                  OFFSET 26.4919 0 1.0813
                  CHANNELS 6 Xposition Yposition Zposition Zrotation Xrotation Yrotation
                  End Site
                  {
                    OFFSET 0 0 0
                  }
                }
              }
            }
          }
        }
      }
    }
  }
  JOINT RightHip
  {
    OFFSET -8.63673 0.00547028 0
    CHANNELS 6 Xposition Yposition Zposition Zrotation Xrotation Yrotation
    JOINT RightKnee
    {
      OFFSET 0 -44.4933 -2.13962
      CHANNELS 6 Xposition Yposition Zposition Zrotation Xrotation Yrotation
      JOINT RightAnkle
      {
        OFFSET 0 -43.4408 -3.54051
        CHANNELS 6 Xposition Yposition Zposition Zrotation Xrotation Yrotation
        JOINT RightToe
        {
          OFFSET 0 -8.39271 19.1252
          CHANNELS 6 Xposition Yposition Zposition Zrotation Xrotation Yrotation
          End Site
          {
            OFFSET 0 0 0
          }
        }
      }
    }
  }
  JOINT LeftHip
  {
    OFFSET 8.63673 0.00547028 0
    CHANNELS 6 Xposition Yposition Zposition Zrotation Xrotation Yrotation
    JOINT LeftKnee
    {
      OFFSET 0 -44.4932 -2.13964
      CHANNELS 6 Xposition Yposition Zposition Zrotation Xrotation Yrotation
      JOINT LeftAnkle
      {
        OFFSET 0 -43.4408 -3.54051
        CHANNELS 6 Xposition Yposition Zposition Zrotation Xrotation Yrotation
        JOINT LeftToe
        {
          OFFSET 0 -8.39272 19.1252
          CHANNELS 6 Xposition Yposition Zposition Zrotation Xrotation Yrotation
          End Site
          {
            OFFSET 0 0 0
          }
        }
      }
    }
  }
}
MOTION
Frames:	4
Frame Time:	0.0333333
-37.033 84.2275 95.5189 -3.89679 -1.95325 89.1955 1.42109e-014 10.5691 -1.07959 0.670622 3.23904 0.84406 0 11.6675 1.08235 1.29643 6.48747 1.65406 1.42109e-014 10.5876 -1.42109e-014 1.29643 6.48747 1.65406 0 10.5876 -1.42109e-014 1.29643 6.48747 1.65408 0 14.8794 3.17845e-005 21.4171 -12.224 0.827314 -7.10543e-015 9.61472 2.16553 -27.1731 -3.08848 10.4178 -3.23953 8.30385 1.42109e-014 3.97569e-016 -1.963e-015 -0 -15.1725 -4.76837e-006 -1.42109e-014 56.3183 8.91028 47.3406 -32.4113 -3.23986e-006 -3.58495e-006 -6.56089 13.9288 67.7357 -26.4919 1.04543e-006 1.08131 -19.9572 -2.10641 10.2189 3.23953 8.30385 1.42109e-014 3.97569e-016 -1.963e-015 -0 15.1725 -4.76837e-006 -1.42109e-014 -59.8041 27.6029 5.37482 32.4113 -1.67405e-006 1.56903e-007 -3.52105 -6.49629 -79.0839 26.4919 -1.1214e-006 1.0813 6.47436 0.18029 4.89588 -8.63673 0.00547028 0 -17.4341 -12.5066 0.106601 2.75758e-006 -44.4933 -2.13943 -8.42459 41.0562 14.3674 -3.98762e-008 -43.4408 -3.54051 5.32245 1.02048 0.667383 -4.37893e-007 -8.39271 19.1252 -10.6138 -29.0719 -12.5505 8.63673 0.00547028 0 -9.96953 -44.7062 4.17775 -2.06144e-006 -44.4932 -2.13962 -17.5011 44.3484 7.60194 3.53798e-007 -43.4408 -3.54051 5.73163 0.177343 4.33665 -4.61831e-007 -8.39272 19.1252 1.16583 -16.8339 0.273516 
-29.114 85.8204 94.028 -4.12219 -3.72373 91.0034 1.42109e-014 10.5691 -1.07959 0.948976 3.0561 0.968498 0 11.6675 1.08235 1.84997 6.12747 1.8901 1.42109e-014 10.5876 7.10543e-015 1.84997 6.12747 1.89013 1.42109e-014 10.5876 -1.42109e-014 1.84997 6.12747 1.89012 0 14.8794 3.22387e-005 19.7931 -12.9936 0.385423 7.10543e-015 9.61472 2.16553 -26.4241 -1.53901 9.7135 -3.23953 8.30385 0 -5.96354e-016 5.61567e-015 1.59028e-015 -15.1725 -4.76837e-006 0 55.2238 14.8225 43.5202 -32.4113 -3.23986e-006 -3.58495e-006 -7.04992 13.1548 68.3253 -26.4919 1.04543e-006 1.08131 -17.3317 -1.95896 11.0558 3.23953 8.30385 1.42109e-014 -5.96354e-016 5.61567e-015 1.59028e-015 15.1725 -4.76837e-006 -1.42109e-014 -67.3398 34.15 12.4463 32.4113 -1.67405e-006 1.56903e-007 -0.327103 -8.88802 -79.6006 26.4919 -1.1214e-006 1.0813 5.54084 0.127304 4.39062 -8.63673 0.00547028 -7.10543e-015 -17.6439 -11.4793 -1.28516 2.75758e-006 -44.4933 -2.13942 -10.2885 42.194 16.9881 -3.98762e-008 -43.4408 -3.54051 19.3407 8.39574 1.93327 -4.37893e-007 -8.39271 19.1252 -3.82946 -11.9057 -1.87579 8.63673 0.00547028 0 -11.291 -39.6919 4.20109 -2.06144e-006 -44.4932 -2.13962 -9.3368 23.6475 3.94113 3.53798e-007 -43.4408 -3.54051 1.02603 5.21889 2.42339 -4.61831e-007 -8.39272 19.1252 0.84548 -13.4373 0.699827 
-20.8451 86.1733 92.4805 -3.70082 -5.91608 92.2599 1.42109e-014 10.5691 -1.07959 1.22166 2.891 1.01313 0 11.6675 1.08235 2.39656 5.8025 1.96794 0 10.5876 -7.10543e-015 2.39655 5.80251 1.96796 0 10.5876 -7.10543e-015 2.39656 5.8025 1.96795 0 14.8794 3.26946e-005 18.7502 -12.6757 -0.331259 0 9.61472 2.16553 -25.3733 0.0304122 8.99447 -3.23953 8.30385 0 1.0552e-031 -3.80176e-015 1.59028e-015 -15.1725 -4.76837e-006 -1.42109e-014 57.0043 15.334 37.328 -32.4113 -3.23986e-006 -3.58495e-006 -4.40021 14.8027 65.8954 -26.4919 1.04543e-006 1.08131 -19.1793 -2.06063 10.4324 3.23953 8.30385 0 1.0552e-031 -3.80176e-015 1.59028e-015 15.1725 -4.76837e-006 -1.42109e-014 -74.2961 33.7086 17.9569 32.4113 -1.67405e-006 1.56903e-007 -1.71806 -9.1592 -78.9157 26.4919 -1.1214e-006 1.0813 4.3082 0.134899 5.30303 -8.63673 0.00547028 -3.55271e-015 -16.8766 -14.2092 -0.335918 2.75758e-006 -44.4933 -2.13942 -13.9165 49.6644 20.9797 -3.98762e-008 -43.4408 -3.54051 28.4766 12.8587 2.33602 -4.37892e-007 -8.39271 19.1252 4.48113 22.1684 5.25851 8.63673 0.00547028 0 -11.3857 -36.1724 5.595 -2.06144e-006 -44.4932 -2.13962 -6.22915 16.1571 3.53327 3.53798e-007 -43.4408 -3.54051 -5.248 10.1173 -0.851804 -4.61831e-007 -8.39272 19.1252 0.361091 1.78984 -2.3624 
-12.5322 85.165 90.8032 -2.60722 -7.39155 94.7374 0 10.5691 -1.07959 1.2836 2.78693 0.836557 0 11.6675 1.08235 2.53079 5.5917 1.61317 -1.42109e-014 10.5876 -7.10543e-015 2.53079 5.5917 1.61318 0 10.5876 -1.42109e-014 2.53079 5.5917 1.61317 0 14.8794 3.3152e-005 21.2557 -10.8413 -1.26161 -2.84217e-014 9.61472 2.16553 -27.0904 -1.22781 9.04449 -3.23953 8.30385 0 3.97569e-016 5.34234e-016 -0 -15.1725 -4.76837e-006 -1.42109e-014 60.1875 10.5361 30.432 -32.4113 -3.23986e-006 -3.58495e-006 -0.256057 17.8067 60.5012 -26.4919 1.04543e-006 1.08131 -22.2451 -2.26319 9.74192 3.23953 8.30385 0 3.97569e-016 5.34234e-016 -0 15.1725 -4.76837e-006 -1.42109e-014 -76.475 29.867 19.1036 32.4113 -1.67405e-006 1.56903e-007 -3.33407 -8.58134 -79.1669 26.4919 -1.1214e-006 1.0813 4.30121 0.161363 5.99976 -8.63673 0.00547028 0 -17.0909 -19.1151 3.13824 2.75758e-006 -44.4933 -2.13941 -11.8946 62.1168 19.273 -3.98762e-008 -43.4408 -3.54051 22.8616 11.7827 -0.640117 -4.37893e-007 -8.39271 19.1252 -1.94535 18.6105 22.4658 8.63673 0.00547028 0 -10.7152 -36.0709 7.23178 -2.06144e-006 -44.4932 -2.13962 -9.29248 26.4982 2.82763 3.53798e-007 -43.4408 -3.54051 -2.65131 5.79853 -0.340318 -4.61831e-007 -8.39272 19.1252 0.187075 21.5062 -4.21843 
